<svg id="Ebene_3" data-name="Ebene 3" xmlns="http://www.w3.org/2000/svg" viewBox="0 0 166.28 268.93"><path d="M518.69,539.57a8.46,8.46,0,0,1-.87-.05,8.55,8.55,0,0,1-7.65-9.37c1.06-10.56,4.61-30.42,16.32-44.89,17.6-22.18,23.94-36.24,25-55.52a66,66,0,0,0-132,0c1.05,19.28,7.39,33.34,25,55.58,11.67,14.41,15.21,34.27,16.28,44.83a8.56,8.56,0,0,1-17,1.72c-.88-8.66-3.68-24.82-12.61-35.85-20.05-25.28-27.57-42.43-28.78-65.61,0-.15,0-.3,0-.45a83.14,83.14,0,0,1,166.28,0c0,.15,0,.3,0,.45-1.21,23.18-8.73,40.33-28.73,65.55-9,11.09-11.78,27.25-12.66,35.91A8.55,8.55,0,0,1,518.69,539.57Z" transform="translate(-402.31 -347)"/><path d="M514.85,563.31H454.94a8.56,8.56,0,0,1,0-17.12h59.91a8.56,8.56,0,0,1,0,17.12Z" transform="translate(-402.31 -347)"/><path d="M514.85,584.7H454.94a8.56,8.56,0,1,1,0-17.11h59.91a8.56,8.56,0,1,1,0,17.11Z" transform="translate(-402.31 -347)"/><path d="M512.75,591.12c3,0,5,2.67,4,5.15a31,31,0,0,1-10,12.55,37.05,37.05,0,0,1-43.65,0,31,31,0,0,1-10-12.55c-1.06-2.48,1-5.15,4-5.15Z" transform="translate(-402.31 -347)"/></svg>
