<?xml version="1.0" encoding="UTF-8" standalone="no"?>
<svg
   xmlns:dc="http://purl.org/dc/elements/1.1/"
   xmlns:cc="http://creativecommons.org/ns#"
   xmlns:rdf="http://www.w3.org/1999/02/22-rdf-syntax-ns#"
   xmlns:svg="http://www.w3.org/2000/svg"
   xmlns="http://www.w3.org/2000/svg"
   height="328.85086"
   width="328.85086"
   version="1.1"
   viewBox="0 0 328.85086 328.85087">
  <circle
     r="154.97661"
     cy="164.42543"
     cx="164.42543"
     id="path825"
     style="fill:#ffffff;fill-opacity:1" />
  <g
     transform="translate(81.215428,30.050168)"
     id="g833">
    <path
       d="m 518.69,539.57 a 8.46,8.46 0 0 1 -0.87,-0.05 8.55,8.55 0 0 1 -7.65,-9.37 c 1.06,-10.56 4.61,-30.42 16.32,-44.89 17.6,-22.18 23.94,-36.24 25,-55.52 a 66,66 0 0 0 -132,0 c 1.05,19.28 7.39,33.34 25,55.58 11.67,14.41 15.21,34.27 16.28,44.83 a 8.56,8.56 0 0 1 -17,1.72 c -0.88,-8.66 -3.68,-24.82 -12.61,-35.85 -20.05,-25.28 -27.57,-42.43 -28.78,-65.61 0,-0.15 0,-0.3 0,-0.45 a 83.14,83.14 0 0 1 166.28,0 c 0,0.15 0,0.3 0,0.45 -1.21,23.18 -8.73,40.33 -28.73,65.55 -9,11.09 -11.78,27.25 -12.66,35.91 a 8.55,8.55 0 0 1 -8.58,7.7 z"
       transform="translate(-402.31,-347)"
       id="path2" />
    <path
       d="m 514.85,563.31 h -59.91 a 8.56,8.56 0 0 1 0,-17.12 h 59.91 a 8.56,8.56 0 0 1 0,17.12 z"
       transform="translate(-402.31,-347)"
       id="path4" />
    <path
       d="m 514.85,584.7 h -59.91 a 8.56,8.56 0 1 1 0,-17.11 h 59.91 a 8.56,8.56 0 1 1 0,17.11 z"
       transform="translate(-402.31,-347)"
       id="path6" />
    <path
       d="m 512.75,591.12 c 3,0 5,2.67 4,5.15 a 31,31 0 0 1 -10,12.55 37.05,37.05 0 0 1 -43.65,0 31,31 0 0 1 -10,-12.55 c -1.06,-2.48 1,-5.15 4,-5.15 z"
       transform="translate(-402.31,-347)"
       id="path8" />
  </g>
</svg>
