<svg id="Ebene_4" data-name="Ebene 4" xmlns="http://www.w3.org/2000/svg" viewBox="0 0 160.96 253.48"><path d="M485.45,555.9a20.12,20.12,0,0,1-20.12-20.12V495.54a20.12,20.12,0,0,1,20.12-20.12,40.26,40.26,0,0,0,15.66-77.33,40.64,40.64,0,0,0-31.32,0,40.23,40.23,0,0,0-24.58,37.09,20.12,20.12,0,0,1-40.24,0A80.58,80.58,0,0,1,454.12,361a81,81,0,0,1,62.66,0,80.5,80.5,0,0,1-11.21,152.09v22.66A20.12,20.12,0,0,1,485.45,555.9Z" transform="translate(-404.97 -354.73)"/><circle cx="80.48" cy="233.36" r="20.12"/></svg>
