<?xml version="1.0" encoding="UTF-8" standalone="no"?>
<svg
   xmlns:dc="http://purl.org/dc/elements/1.1/"
   xmlns:cc="http://creativecommons.org/ns#"
   xmlns:rdf="http://www.w3.org/1999/02/22-rdf-syntax-ns#"
   xmlns:svg="http://www.w3.org/2000/svg"
   xmlns="http://www.w3.org/2000/svg"
   height="324.95322"
   width="324.95322"
   viewBox="0 0 324.9532 324.95322"
   version="1.1">
  <circle
     r="154.97661"
     cy="162.47661"
     cx="162.47661"
     id="path825"
     style="fill:#ffffff;fill-opacity:1;stroke:#000000;stroke-width:15;stroke-linecap:round;stroke-linejoin:round;stroke-miterlimit:4;stroke-dasharray:none;stroke-opacity:1" />
  <g
     transform="translate(81.992607,35.753815)"
     id="g826">
    <path
       id="path2"
       transform="translate(-404.97,-354.73)"
       d="m 485.45,555.9 a 20.12,20.12 0 0 1 -20.12,-20.12 v -40.24 a 20.12,20.12 0 0 1 20.12,-20.12 40.26,40.26 0 0 0 15.66,-77.33 40.64,40.64 0 0 0 -31.32,0 40.23,40.23 0 0 0 -24.58,37.09 20.12,20.12 0 0 1 -40.24,0 80.58,80.58 0 0 1 49.15,-74.18 81,81 0 0 1 62.66,0 80.5,80.5 0 0 1 -11.21,152.09 v 22.66 a 20.12,20.12 0 0 1 -20.12,20.15 z" />
    <circle
       id="circle4"
       r="20.120001"
       cy="233.36"
       cx="80.480003" />
  </g>
</svg>
