<?xml version="1.0" standalone="no"?>
<!DOCTYPE svg PUBLIC "-//W3C//DTD SVG 20010904//EN"
 "http://www.w3.org/TR/2001/REC-SVG-20010904/DTD/svg10.dtd">
<svg version="1.0" xmlns="http://www.w3.org/2000/svg"
 width="1904.000000pt" height="1904.000000pt" viewBox="0 0 1904.000000 1904.000000"
 preserveAspectRatio="xMidYMid meet">
<metadata>
Created by potrace 1.14, written by Peter Selinger 2001-2017
</metadata>
<g transform="translate(0.000000,1904.000000) scale(0.100000,-0.100000)"
fill="#000000" stroke="none">
<path d="M1196 13815 c-3 -8 -1 -15 5 -15 6 0 7 -5 3 -12 -9 -15 -11 -158 -2
-158 4 0 3 -13 -2 -30 -5 -18 -5 -32 1 -36 5 -3 6 -10 2 -17 -9 -14 -10 -157
-1 -157 4 0 3 -13 -2 -30 -5 -18 -5 -32 1 -36 5 -3 6 -10 3 -16 -9 -15 -11
-158 -2 -158 4 0 3 -13 -2 -30 -5 -18 -5 -32 1 -36 5 -3 6 -10 2 -17 -9 -14
-10 -157 -1 -157 4 0 3 -13 -2 -30 -5 -18 -5 -32 1 -36 5 -3 6 -10 2 -16 -9
-16 -10 -169 0 -175 4 -2 4 -12 -1 -21 -10 -21 -9 -73 1 -89 5 -7 5 -13 0 -13
-10 0 -10 -131 1 -148 4 -6 4 -12 -1 -12 -10 0 -10 -131 1 -148 4 -6 4 -12 -1
-12 -10 0 -10 -131 1 -148 4 -6 4 -12 -1 -12 -10 0 -10 -131 1 -148 4 -6 4
-12 -1 -12 -10 0 -10 -131 1 -148 4 -6 4 -12 -1 -12 -10 0 -10 -131 1 -148 4
-6 4 -12 -1 -12 -10 0 -10 -131 1 -148 4 -6 4 -12 -1 -12 -4 0 -8 -41 -8 -90
0 -50 3 -90 7 -90 4 0 3 -13 -2 -30 -5 -18 -5 -32 1 -36 5 -3 6 -10 2 -17 -9
-14 -10 -157 -1 -157 4 0 3 -13 -2 -30 -5 -18 -5 -32 1 -36 5 -3 6 -10 3 -16
-9 -15 -11 -158 -2 -158 4 0 3 -13 -2 -30 -5 -18 -5 -32 1 -36 5 -3 6 -10 2
-17 -9 -14 -10 -157 -1 -157 4 0 3 -13 -2 -30 -5 -18 -5 -32 1 -36 5 -3 6 -10
3 -16 -9 -15 -11 -158 -2 -158 4 0 3 -13 -2 -30 -5 -18 -5 -32 1 -36 5 -3 6
-10 2 -17 -9 -14 -10 -157 -1 -157 4 0 3 -13 -2 -30 -5 -18 -5 -32 1 -36 5 -3
6 -10 3 -16 -9 -15 -11 -158 -2 -158 4 0 3 -13 -2 -30 -5 -18 -5 -32 1 -36 5
-3 6 -10 2 -17 -9 -14 -10 -157 -1 -157 4 0 3 -13 -2 -30 -5 -18 -5 -32 1 -36
5 -3 6 -10 3 -16 -9 -15 -11 -158 -2 -158 4 0 3 -13 -2 -30 -5 -18 -5 -32 1
-36 5 -3 6 -10 2 -17 -9 -14 -10 -157 -1 -157 4 0 3 -13 -2 -30 -5 -18 -5 -32
1 -36 5 -3 6 -10 2 -16 -9 -16 -10 -169 0 -175 4 -2 4 -12 -1 -21 -10 -21 -9
-73 1 -89 5 -7 5 -13 0 -13 -10 0 -10 -131 1 -148 4 -6 3 -12 -1 -12 -8 0 -8
-19 2 -118 12 -121 49 -223 120 -332 40 -62 160 -190 177 -190 5 0 18 -9 30
-20 12 -11 28 -20 35 -20 7 0 13 -3 13 -8 0 -4 12 -13 28 -19 96 -42 114 -48
197 -68 11 -3 39 -7 63 -10 23 -2 47 -7 52 -10 5 -3 11 -1 15 5 4 7 12 7 25 0
10 -6 21 -6 24 -1 3 4 24 5 46 1 22 -4 43 -3 46 1 3 5 14 4 25 -1 13 -8 19 -7
19 0 0 6 5 8 11 5 11 -7 127 -10 133 -4 3 2 50 2 105 -1 55 -3 111 -2 123 1
13 3 33 2 46 -2 13 -5 22 -5 22 2 0 6 7 6 20 -1 14 -8 20 -8 20 0 0 6 5 8 11
5 12 -8 127 -10 134 -3 3 3 25 2 50 -2 25 -4 45 -3 45 2 0 5 9 4 20 -2 14 -8
20 -8 20 0 0 8 6 8 20 0 14 -8 20 -8 20 0 0 6 5 8 11 5 12 -8 127 -10 134 -3
3 3 25 2 50 -2 25 -4 45 -3 45 2 0 5 9 4 20 -2 14 -8 20 -8 20 0 0 8 6 8 20 0
14 -8 20 -8 20 0 0 6 5 8 11 5 12 -8 127 -10 134 -3 3 3 25 2 50 -2 25 -4 45
-3 45 2 0 5 9 4 20 -2 14 -8 20 -8 20 0 0 8 6 8 20 0 14 -8 20 -8 20 0 0 6 5
8 11 5 12 -8 127 -10 134 -3 3 3 25 2 50 -2 25 -4 45 -3 45 2 0 5 5 6 12 2 12
-8 127 -8 135 0 3 2 16 1 29 -4 16 -6 24 -6 24 1 0 6 7 6 20 -1 14 -8 20 -8
20 0 0 6 5 8 11 5 9 -6 108 -9 134 -4 6 1 13 1 17 1 5 -1 158 -2 233 -1 11 0
121 -1 243 -1 123 -1 226 1 229 4 3 2 16 1 29 -4 16 -6 24 -6 24 1 0 6 7 6 20
-1 14 -8 20 -8 20 0 0 6 5 8 11 5 9 -6 108 -9 134 -4 6 1 13 1 17 1 5 -1 158
-2 233 -1 11 0 121 -1 243 -1 123 -1 226 1 229 4 3 2 16 1 29 -4 16 -6 24 -6
24 1 0 6 7 6 20 -1 14 -8 20 -8 20 0 0 6 5 8 11 5 11 -7 127 -10 133 -4 3 2
50 2 105 -1 55 -3 111 -2 123 1 13 3 33 2 46 -2 13 -5 22 -5 22 2 0 6 7 6 20
-1 14 -8 20 -8 20 0 0 6 5 8 11 5 12 -8 127 -10 134 -3 3 3 25 2 50 -2 25 -4
45 -3 45 2 0 5 9 4 20 -2 14 -8 20 -8 20 0 0 8 6 8 20 0 14 -8 20 -8 20 0 0 6
5 8 11 5 12 -8 127 -10 134 -3 3 3 25 2 50 -2 25 -4 45 -3 45 2 0 5 9 4 20 -2
14 -8 20 -8 20 0 0 8 6 8 20 0 14 -8 20 -8 20 0 0 6 5 8 11 5 12 -8 127 -10
134 -3 3 3 25 2 50 -2 25 -4 45 -3 45 2 0 5 9 4 20 -2 14 -8 20 -8 20 0 0 8 6
8 20 0 14 -8 20 -8 20 0 0 6 5 8 11 5 12 -8 127 -10 134 -3 3 3 25 2 50 -2 25
-4 45 -3 45 2 0 5 5 6 12 2 12 -8 127 -8 135 0 3 2 16 1 29 -4 16 -6 24 -6 24
1 0 6 7 6 20 -1 14 -8 20 -8 20 0 0 6 5 8 11 5 9 -6 108 -9 134 -4 6 1 13 1
17 1 5 -1 158 -2 233 -1 11 0 121 -1 243 -1 123 -1 226 1 229 4 3 2 16 1 29
-4 16 -6 24 -6 24 1 0 6 7 6 20 -1 14 -8 20 -8 20 0 0 6 5 8 11 5 9 -6 108 -9
134 -4 6 1 13 1 17 1 5 -1 158 -2 233 -1 11 0 121 -1 243 -1 123 -1 226 1 229
4 3 2 16 1 29 -4 16 -6 24 -6 24 1 0 6 7 6 20 -1 14 -8 20 -8 20 0 0 6 5 8 11
5 9 -6 108 -9 134 -4 6 1 13 1 17 1 3 -1 53 -1 110 -1 129 0 130 0 206 -2 35
0 66 2 69 4 3 3 16 2 29 -3 16 -6 24 -6 24 1 0 6 7 6 20 -1 14 -8 20 -8 20 0
0 6 5 8 11 5 9 -6 108 -9 134 -4 6 1 13 1 17 1 5 -1 158 -2 233 -1 11 0 121
-1 243 -1 123 -1 226 1 229 4 3 2 16 1 29 -4 16 -6 24 -6 24 1 0 6 7 6 20 -1
14 -8 20 -8 20 0 0 6 5 8 11 5 9 -6 108 -9 134 -4 6 1 13 1 17 1 5 -1 158 -2
233 -1 11 0 121 -1 243 -1 123 -1 226 1 229 4 3 2 16 1 29 -4 16 -6 24 -6 24
1 0 6 7 6 20 -1 14 -8 20 -8 20 0 0 6 5 8 11 5 11 -7 127 -10 133 -4 3 2 50 2
105 -1 55 -3 111 -2 123 1 13 3 33 2 46 -2 13 -5 22 -5 22 2 0 6 7 6 20 -1 14
-8 20 -8 20 0 0 6 5 8 11 5 12 -8 127 -10 134 -3 3 3 25 2 50 -2 25 -4 45 -3
45 2 0 5 9 4 20 -2 14 -8 20 -8 20 0 0 8 6 8 20 0 14 -8 20 -8 20 0 0 6 5 8
11 5 12 -8 127 -10 134 -3 3 3 25 2 50 -2 25 -4 45 -3 45 2 0 5 9 4 20 -2 14
-8 20 -8 20 0 0 8 6 8 20 0 14 -8 20 -8 20 0 0 6 5 8 12 4 6 -4 37 -6 68 -5
l58 2 6 -33 c3 -18 8 -44 11 -58 3 -14 10 -45 15 -70 5 -25 11 -55 14 -66 7
-36 47 -188 53 -204 3 -8 7 -21 9 -28 4 -19 64 -204 74 -227 4 -11 23 -58 41
-105 18 -47 50 -122 71 -168 21 -46 38 -87 38 -93 0 -5 4 -9 10 -9 5 0 9 -3 8
-7 -2 -9 46 -101 92 -178 16 -27 33 -57 37 -65 4 -8 22 -36 40 -62 18 -26 33
-52 33 -57 0 -5 3 -11 8 -13 4 -1 28 -32 54 -68 25 -36 57 -78 72 -93 14 -15
26 -32 26 -37 0 -9 266 -281 325 -331 23 -19 61 -50 85 -69 25 -19 46 -38 48
-42 2 -4 8 -8 13 -8 11 0 72 -42 77 -52 2 -5 10 -8 17 -8 7 0 15 -3 17 -8 5
-11 140 -89 238 -138 90 -44 145 -67 380 -159 80 -31 155 -60 168 -65 16 -7
22 -6 23 3 5 51 3 83 -6 89 -7 5 -7 8 0 8 12 0 13 379 1 398 -4 7 -4 12 1 12
4 0 8 20 8 45 0 25 -4 45 -8 45 -5 0 -5 5 -1 12 11 18 10 112 -1 120 -7 5 -7
8 0 8 12 0 13 379 1 398 -4 7 -4 12 1 12 4 0 8 20 8 45 0 25 -4 45 -8 45 -5 0
-5 5 -1 12 11 18 10 112 -1 120 -7 5 -7 8 0 8 12 0 13 379 1 398 -4 7 -4 12 1
12 4 0 8 20 8 45 0 25 -4 45 -8 45 -5 0 -5 5 -1 12 11 18 10 112 -1 120 -7 5
-7 8 0 8 12 0 13 379 1 398 -4 7 -3 12 1 12 5 0 9 19 8 43 l0 42 108 2 c59 0
114 4 121 6 8 3 16 3 19 0 9 -9 127 -9 127 0 0 5 5 5 11 1 9 -5 218 -9 244 -4
6 1 12 2 15 1 21 -6 210 -4 210 2 0 5 5 5 11 1 9 -5 218 -9 244 -4 6 1 15 2
20 1 25 -5 293 -1 334 5 239 30 464 193 570 411 41 84 68 171 75 243 3 25 5
45 6 45 1 0 2 21 3 48 1 26 -1 47 -5 47 -3 0 -5 8 -3 18 2 9 4 17 5 17 7 0 4
153 -3 163 -5 6 -6 12 -1 12 5 0 8 37 6 83 -1 45 -2 96 -1 112 4 119 3 158 -4
162 -4 2 -4 12 1 21 4 9 6 37 5 62 -2 25 -3 59 -2 75 4 123 3 157 -4 162 -4 2
-4 12 1 21 4 9 6 37 5 62 -2 25 -3 59 -2 75 4 123 3 157 -4 162 -4 2 -4 12 1
21 4 9 6 37 5 62 -2 25 -3 59 -2 75 4 123 3 157 -4 162 -4 2 -4 12 1 21 4 9 6
37 5 62 -2 25 -3 59 -2 75 4 123 3 157 -4 162 -4 2 -4 12 1 21 4 9 6 37 5 62
-2 25 -3 59 -2 75 4 123 3 157 -4 162 -4 2 -4 12 1 21 4 9 6 37 5 62 -2 25 -3
59 -2 75 4 123 3 157 -4 162 -4 2 -4 12 1 21 4 9 6 37 5 62 -2 25 -3 59 -2 75
4 123 3 157 -4 162 -4 2 -3 13 3 23 7 13 7 21 0 25 -6 4 -7 12 -3 18 10 15 10
158 -1 175 -4 7 -4 17 0 24 11 17 11 151 1 166 -5 6 -6 12 -1 12 10 0 10 72 0
88 -3 6 -3 13 1 15 10 6 9 159 -1 175 -4 7 -4 17 0 24 11 17 11 151 1 166 -5
6 -6 12 -1 12 10 0 10 72 0 88 -3 6 -3 13 1 15 10 6 9 159 -1 175 -4 7 -4 17
0 24 11 17 11 151 1 166 -5 6 -6 12 -1 12 10 0 10 72 0 88 -3 6 -3 13 1 15 10
6 9 159 -1 175 -4 7 -4 17 0 24 11 17 11 151 1 166 -5 6 -6 12 -1 12 10 0 10
72 0 88 -3 6 -3 13 1 15 10 6 9 159 -1 175 -4 7 -4 17 0 24 11 17 11 151 1
166 -5 6 -6 12 -1 12 5 0 9 27 9 60 l0 60 -285 0 -285 0 0 -65 c0 -36 4 -65 8
-65 5 0 5 -6 0 -12 -10 -17 -11 -69 0 -90 4 -10 4 -18 0 -18 -5 0 -7 -24 -5
-52 3 -60 3 -57 0 -121 -2 -27 0 -51 5 -54 4 -2 4 -9 1 -15 -6 -10 -9 -76 -4
-95 1 -5 1 -12 0 -18 -6 -28 -4 -145 3 -145 5 0 5 -5 1 -11 -9 -16 -11 -150
-1 -156 4 -2 4 -9 0 -15 -9 -16 -10 -139 0 -145 4 -2 4 -9 0 -16 -9 -15 -10
-327 -1 -327 4 0 4 -10 0 -22 -7 -21 -8 -69 -2 -93 1 -5 1 -14 0 -20 -4 -21
-1 -95 4 -104 4 -5 3 -12 -2 -15 -4 -2 -6 -24 -4 -48 2 -24 3 -50 3 -58 -3
-76 -2 -110 4 -119 3 -6 3 -11 -2 -11 -4 0 -7 -19 -5 -42 1 -24 3 -50 2 -58
-1 -71 -1 -117 0 -125 1 -6 1 -14 0 -20 -4 -24 0 -206 5 -215 3 -6 3 -10 -2
-10 -4 0 -7 -24 -6 -52 1 -29 2 -64 2 -78 0 -14 1 -41 2 -60 0 -19 1 -42 0
-50 -1 -8 -1 -28 0 -45 1 -16 0 -37 0 -45 -1 -8 -1 -26 0 -40 0 -14 0 -31 0
-37 -2 -26 -2 -39 1 -81 2 -23 0 -42 -4 -42 -4 0 -3 -12 1 -27 4 -16 4 -40 0
-55 -4 -16 -4 -28 -1 -28 8 0 6 -85 -2 -105 -2 -7 -2 -16 1 -19 9 -8 9 -106 0
-106 -5 0 -5 -5 -2 -10 4 -6 6 -34 6 -63 -1 -65 -1 -79 0 -144 0 -29 -2 -57
-6 -63 -3 -5 -3 -10 2 -10 4 0 7 -96 5 -212 -1 -117 -3 -217 -3 -223 3 -567 1
-1386 -3 -1403 -12 -54 -50 -102 -100 -127 l-50 -25 -981 0 -982 0 1 -1105 c1
-608 -2 -1105 -6 -1105 -4 0 -13 6 -20 13 -7 7 -24 20 -38 29 -69 43 -254 225
-346 338 -63 78 -174 236 -174 247 0 3 -7 14 -15 22 -18 21 -167 311 -159 311
4 0 2 6 -4 13 -11 13 -61 132 -67 159 -2 9 -11 30 -19 47 -9 17 -16 32 -15 33
1 2 -6 30 -16 63 -10 33 -19 62 -19 65 -1 3 -5 11 -9 18 -5 6 -6 12 -3 12 3 0
1 11 -4 25 -5 14 -12 36 -14 48 -3 12 -14 58 -25 102 -10 44 -22 94 -25 110
-7 44 -15 86 -23 125 -4 19 -8 46 -9 60 -1 14 -3 25 -4 25 -2 0 -5 23 -14 102
-4 34 -9 72 -11 85 -3 13 -8 50 -11 83 -4 33 -8 63 -11 68 -2 4 -2742 7 -6087
7 -3346 0 -6098 3 -6115 6 -50 10 -116 75 -131 129 -11 38 -13 566 -13 2721
l0 2674 -277 0 c-238 0 -279 -2 -284 -15z"/>
</g>
</svg>
